<svg width="32" height="32" viewBox="0 0 32 32" fill="none" xmlns="http://www.w3.org/2000/svg">
  <path d="M16 28C22.6274 28 28 22.6274 28 16C28 9.37258 22.6274 4 16 4C9.37258 4 4 9.37258 4 16C4 22.6274 9.37258 28 16 28Z" stroke="currentColor" stroke-width="2" stroke-miterlimit="10"/>
  <path d="M4.6875 12H27.3125" stroke="currentColor" stroke-width="2" stroke-linecap="round" stroke-linejoin="round"/>
  <path d="M4.6875 20H27.3125" stroke="currentColor" stroke-width="2" stroke-linecap="round" stroke-linejoin="round"/>
  <path d="M16 27.6752C18.7614 27.6752 21 22.4481 21 16.0002C21 9.55227 18.7614 4.3252 16 4.3252C13.2386 4.3252 11 9.55227 11 16.0002C11 22.4481 13.2386 27.6752 16 27.6752Z" stroke="currentColor" stroke-width="2" stroke-miterlimit="10"/>
</svg>
