<svg width="154" height="42" viewBox="0 0 154 42" fill="none" xmlns="http://www.w3.org/2000/svg">
<path d="M43.473 14.4763C42.9633 13.5793 42.3918 12.7209 41.7662 11.8934L40.685 15.4661L40.6387 15.613L40.6155 15.6981H40.5306H40.3529H36.9857C36.167 15.6981 35.4951 16.2858 35.4951 17.005C35.4951 17.2834 35.5955 17.554 35.7886 17.7783L36.028 18.0644L38.5534 21.1499L38.6384 21.2504C39.3103 22.1397 39.4802 23.2765 39.1172 24.4829C38.7465 25.7047 37.8661 26.8569 36.6304 27.7153C35.3947 28.5736 33.9582 29.0531 32.5758 29.0531H27.4477H27.1542H26.9997L27.0461 28.9062L27.1233 28.651L28.2354 24.9855L28.2818 24.8386L28.3049 24.7535H28.3899H28.5675H30.6373H31.8807C31.8807 24.7535 31.9502 24.7535 31.9425 24.7535C32.7612 24.7535 33.4331 24.1658 33.4331 23.4466C33.4331 23.1682 33.3327 22.8976 33.1396 22.6733C33.1396 22.6733 33.0392 22.5573 33.0315 22.5496L30.367 19.294L30.282 19.1934C29.6101 18.3041 29.4402 17.1674 29.8032 15.961C30.1739 14.7392 31.0544 13.587 32.29 12.7286C33.5257 11.8702 34.9622 11.3908 36.3447 11.3908H41.3801C36.0821 4.78677 27.2932 0.912505 18.9678 1.35329L17.6703 5.64514L17.6239 5.79206L17.6008 5.87713H17.5158H17.3382H12.9129H12.156H12.0016L12.0479 5.7302L12.1251 5.47501L13.0364 2.45912C2.36318 6.02406 -1.65282 16.9741 4.0777 27.0425C4.3789 27.5683 4.70327 28.0865 5.04308 28.5891L10.1789 11.6151L10.2253 11.4681L10.2484 11.3831H10.3334H10.9667H15.392H15.6855H15.8399L15.7936 11.53L15.7164 11.7852L10.5496 28.8443L10.5033 28.9912L10.4801 29.0763H10.3952H10.2175H5.79222H5.36745C11.7158 37.9074 24.119 42.3772 34.244 39.1447C45.118 35.6726 49.2499 24.6298 43.473 14.4763ZM26.3124 24.4906C25.9417 25.7124 25.0613 26.8646 23.8256 27.723C22.5899 28.5814 21.1534 29.0608 19.771 29.0608H14.6428H14.3494H14.1949L14.2412 28.9139L14.3185 28.6587L15.4306 24.9932L15.4769 24.8463L15.5001 24.7612H15.5851H15.755H17.8325H19.0759C19.0759 24.7612 19.1454 24.7612 19.1377 24.7612C19.9563 24.7612 20.6282 24.1735 20.6282 23.4544C20.6282 23.176 20.5278 22.9053 20.3347 22.6811C20.3347 22.6811 20.2343 22.5651 20.2266 22.5573L17.5622 19.3017L17.4772 19.1934C16.8053 18.3041 16.6354 17.1674 16.9984 15.961C17.3691 14.7392 18.2495 13.587 19.4852 12.7286C20.7209 11.8702 22.1574 11.3908 23.5398 11.3908H28.6525H28.946H29.1004L29.0541 11.5377L28.9769 11.7929L27.8802 15.4661L27.8338 15.613L27.8107 15.6981H27.7257H27.5481H24.1808C23.3622 15.6981 22.6903 16.2858 22.6903 17.005C22.6903 17.2834 22.7907 17.554 22.9838 17.7783L23.2232 18.0644L25.7486 21.1499L25.8258 21.2504C26.5055 22.1397 26.6754 23.2842 26.3124 24.4906Z" fill="#002D56"/>
<path d="M70.0452 18.7488H67.0781L66.2202 10.0979H66.1665L61.9662 18.7488H59.017L57.9088 6.09412H61.0546L61.43 14.6021H61.4836L65.4158 6.09412H68.4901L69.1694 14.6021H69.223L72.9944 6.09412H76.1223L70.0452 18.7488Z" fill="#002D56"/>
<path d="M79.6809 18.9991C79.0374 18.9991 78.4357 18.9097 77.8756 18.7309C77.3275 18.5522 76.8508 18.296 76.4457 17.9624C76.0525 17.6168 75.7367 17.2057 75.4984 16.7291C75.272 16.2405 75.1588 15.6924 75.1588 15.0847C75.1588 14.3459 75.2839 13.6429 75.5341 12.9756C75.7844 12.3083 76.1418 11.7244 76.6066 11.2239C77.0832 10.7235 77.6552 10.3243 78.3225 10.0264C78.9897 9.72848 79.7464 9.57953 80.5924 9.57953C81.2478 9.57953 81.8555 9.6689 82.4156 9.84763C82.9756 10.0264 83.4582 10.2885 83.8634 10.6341C84.2685 10.9677 84.5843 11.3788 84.8107 11.8674C85.049 12.344 85.1681 12.8862 85.1681 13.4939C85.1681 14.2446 85.043 14.9536 84.7928 15.6209C84.5426 16.2882 84.1791 16.8721 83.7025 17.3725C83.2259 17.873 82.6479 18.2722 81.9687 18.5701C81.3014 18.8561 80.5388 18.9991 79.6809 18.9991ZM82.3441 13.7978C82.3441 13.2615 82.1773 12.8147 81.8436 12.4572C81.5219 12.0997 81.0631 11.921 80.4673 11.921C80.086 11.921 79.7404 11.9985 79.4306 12.1534C79.1208 12.3083 78.8587 12.5168 78.6442 12.7789C78.4297 13.0411 78.2629 13.345 78.1437 13.6905C78.0246 14.0361 77.965 14.3995 77.965 14.7808C77.965 15.317 78.1258 15.7639 78.4476 16.1214C78.7693 16.4669 79.2281 16.6397 79.8239 16.6397C80.2052 16.6397 80.5507 16.5682 80.8605 16.4252C81.1704 16.2703 81.4325 16.0618 81.647 15.7996C81.8734 15.5375 82.0462 15.2336 82.1653 14.8881C82.2845 14.5425 82.3441 14.1791 82.3441 13.7978Z" fill="#002D56"/>
<path d="M90.6193 11.1524C90.9052 10.6996 91.2448 10.3302 91.6381 10.0442C92.0432 9.75826 92.5258 9.61527 93.0858 9.61527C93.1931 9.61527 93.3003 9.62123 93.4076 9.63315C93.5267 9.64506 93.6221 9.66294 93.6936 9.68677L93.2288 12.2249C93.0978 12.1891 92.9727 12.1653 92.8535 12.1534C92.7343 12.1414 92.6211 12.1355 92.5139 12.1355C92.0968 12.1355 91.7453 12.207 91.4593 12.35C91.1733 12.493 90.935 12.6717 90.7444 12.8862C90.5656 13.0888 90.4286 13.3092 90.3333 13.5475C90.2499 13.7858 90.1903 13.9944 90.1545 14.1731L89.3502 18.7488H86.4904L87.7594 11.6886C87.8071 11.4622 87.8548 11.1703 87.9024 10.8128C87.962 10.4553 88.0037 10.1336 88.0275 9.84763H90.7444C90.7444 9.90721 90.7384 9.99658 90.7265 10.1157C90.7146 10.223 90.6967 10.3421 90.6729 10.4732C90.661 10.5924 90.6431 10.7175 90.6193 10.8486C90.6073 10.9677 90.5954 11.069 90.5835 11.1524H90.6193Z" fill="#002D56"/>
<path d="M99.5903 18.7488L97.3203 14.477H97.2667L96.516 18.7488H93.6561L96.0334 5.23618H98.9111L97.4454 13.4582H97.499L100.877 9.84763H104.488L100.198 14.0122L103.004 18.7488H99.5903Z" fill="#002D56"/>
<path d="M105.174 15.9069C105.401 16.2405 105.698 16.4967 106.068 16.6755C106.449 16.8423 106.836 16.9257 107.23 16.9257C107.611 16.9257 107.915 16.8542 108.141 16.7112C108.38 16.5682 108.499 16.3716 108.499 16.1214C108.499 15.883 108.391 15.6983 108.177 15.5673C107.963 15.4362 107.647 15.3051 107.23 15.174C106.813 15.0549 106.443 14.9238 106.121 14.7808C105.812 14.6259 105.55 14.4531 105.335 14.2625C105.121 14.0599 104.96 13.8335 104.852 13.5833C104.745 13.3211 104.692 13.0173 104.692 12.6717C104.692 12.1832 104.799 11.7482 105.013 11.3669C105.24 10.9856 105.532 10.6639 105.889 10.4017C106.259 10.1277 106.687 9.92509 107.176 9.79401C107.665 9.65102 108.177 9.57953 108.713 9.57953C109.404 9.57953 110.048 9.69869 110.644 9.937C111.251 10.1634 111.734 10.503 112.091 10.9558L110.286 12.4751C110.119 12.2368 109.887 12.0402 109.589 11.8853C109.303 11.7303 108.957 11.6529 108.552 11.6529C108.243 11.6529 107.957 11.7125 107.694 11.8316C107.444 11.9508 107.319 12.1534 107.319 12.4393C107.319 12.6419 107.414 12.8028 107.605 12.9219C107.796 13.0292 108.088 13.1364 108.481 13.2437C109.315 13.4701 109.97 13.7858 110.447 14.191C110.936 14.5842 111.18 15.1621 111.18 15.9248C111.18 16.461 111.061 16.9316 110.822 17.3368C110.596 17.73 110.292 18.0577 109.911 18.3198C109.541 18.5701 109.112 18.7548 108.624 18.8739C108.147 19.005 107.659 19.0706 107.158 19.0706C106.336 19.0706 105.603 18.9335 104.96 18.6595C104.316 18.3854 103.792 18.01 103.387 17.5334L105.174 15.9069Z" fill="#002D56"/>
<path d="M114.859 23.0385H112L114.323 9.84763H117.04L116.826 11.0809H116.879C117.213 10.6281 117.63 10.2766 118.13 10.0264C118.643 9.76422 119.197 9.63315 119.793 9.63315C120.377 9.63315 120.901 9.72847 121.366 9.91913C121.83 10.1098 122.223 10.3779 122.545 10.7235C122.867 11.0571 123.111 11.4622 123.278 11.9389C123.445 12.4036 123.528 12.91 123.528 13.4582C123.528 14.2208 123.403 14.9417 123.153 15.6209C122.915 16.2882 122.575 16.8721 122.134 17.3725C121.693 17.873 121.169 18.2722 120.561 18.5701C119.965 18.8561 119.31 18.9991 118.595 18.9991C117.94 18.9991 117.374 18.8799 116.897 18.6416C116.42 18.3913 116.063 18.0577 115.825 17.6406H115.789L114.859 23.0385ZM120.668 13.8335C120.668 13.2973 120.514 12.8504 120.204 12.493C119.894 12.1236 119.441 11.9389 118.845 11.9389C118.488 11.9389 118.154 12.0163 117.844 12.1712C117.535 12.3261 117.266 12.5347 117.04 12.7968C116.814 13.059 116.635 13.3628 116.504 13.7084C116.373 14.054 116.307 14.4174 116.307 14.7987C116.307 15.3468 116.474 15.7996 116.808 16.1571C117.141 16.5027 117.6 16.6755 118.184 16.6755C118.565 16.6755 118.905 16.604 119.203 16.461C119.513 16.3061 119.775 16.1035 119.989 15.8533C120.204 15.5911 120.371 15.2872 120.49 14.9417C120.609 14.5961 120.668 14.2267 120.668 13.8335Z" fill="#002D56"/>
<path d="M133.703 12.4572C133.703 12.624 133.691 12.8028 133.667 12.9934C133.655 13.1841 133.631 13.3688 133.595 13.5475L132.988 17.0151C132.928 17.3249 132.88 17.6406 132.845 17.9624C132.821 18.2841 132.809 18.5463 132.809 18.7488H130.271C130.271 18.6177 130.277 18.4688 130.289 18.302C130.301 18.1232 130.318 17.9564 130.342 17.8015H130.307C129.651 18.576 128.746 18.9633 127.59 18.9633C127.28 18.9633 126.958 18.9216 126.624 18.8382C126.303 18.7667 126.005 18.6416 125.731 18.4628C125.469 18.2722 125.254 18.0279 125.087 17.73C124.921 17.4202 124.837 17.0448 124.837 16.604C124.837 15.889 125.016 15.3051 125.373 14.8523C125.731 14.3995 126.196 14.048 126.767 13.7978C127.351 13.5475 128.007 13.3747 128.734 13.2794C129.472 13.1841 130.211 13.1364 130.95 13.1364C130.974 13.0292 130.986 12.9458 130.986 12.8862C130.986 12.8266 130.986 12.773 130.986 12.7253C130.986 12.3798 130.861 12.1295 130.61 11.9746C130.372 11.8078 130.032 11.7244 129.592 11.7244C129.186 11.7244 128.775 11.8018 128.358 11.9568C127.953 12.1117 127.584 12.3142 127.25 12.5645L126.07 10.9201C126.607 10.4911 127.22 10.1634 127.911 9.937C128.614 9.69869 129.306 9.57953 129.985 9.57953C130.521 9.57953 131.016 9.63911 131.468 9.75827C131.921 9.86551 132.308 10.0383 132.63 10.2766C132.964 10.5149 133.226 10.8128 133.417 11.1703C133.607 11.5278 133.703 11.9568 133.703 12.4572ZM130.539 14.8523C130.181 14.8523 129.818 14.8702 129.449 14.9059C129.079 14.9298 128.746 14.9894 128.448 15.0847C128.162 15.18 127.923 15.3111 127.733 15.4779C127.542 15.6447 127.447 15.8652 127.447 16.1392C127.447 16.4967 127.566 16.741 127.804 16.8721C128.054 16.9912 128.328 17.0508 128.626 17.0508C129.174 17.0508 129.633 16.884 130.003 16.5503C130.372 16.2048 130.604 15.7818 130.7 15.2813L130.789 14.8523H130.539Z" fill="#002D56"/>
<path d="M142.364 12.6717C142.233 12.4691 142.025 12.2904 141.739 12.1355C141.464 11.9806 141.155 11.9031 140.809 11.9031C140.428 11.9031 140.076 11.9806 139.755 12.1355C139.433 12.2785 139.153 12.4811 138.914 12.7432C138.688 13.0054 138.509 13.3092 138.378 13.6548C138.247 13.9884 138.182 14.3399 138.182 14.7093C138.182 14.9596 138.217 15.2038 138.289 15.4422C138.372 15.6686 138.491 15.8711 138.646 16.0499C138.801 16.2167 138.998 16.3537 139.236 16.461C139.486 16.5682 139.778 16.6218 140.112 16.6218C140.541 16.6218 140.904 16.5444 141.202 16.3895C141.5 16.2346 141.756 16.0439 141.971 15.8175L143.329 17.6406C142.865 18.0577 142.34 18.3913 141.756 18.6416C141.173 18.8799 140.499 18.9991 139.737 18.9991C139.093 18.9991 138.503 18.9097 137.967 18.7309C137.431 18.5403 136.972 18.2722 136.591 17.9266C136.221 17.5811 135.93 17.17 135.715 16.6933C135.512 16.2167 135.411 15.6805 135.411 15.0847C135.411 14.3578 135.542 13.6667 135.804 13.0113C136.067 12.344 136.436 11.7601 136.913 11.2597C137.389 10.7473 137.961 10.3421 138.628 10.0442C139.308 9.73443 140.058 9.57953 140.881 9.57953C141.56 9.57953 142.191 9.69273 142.775 9.91913C143.371 10.1455 143.836 10.4911 144.169 10.9558L142.364 12.6717Z" fill="#002D56"/>
<path d="M147.387 15.0668C147.375 15.1145 147.369 15.1681 147.369 15.2277C147.369 15.4779 147.422 15.7043 147.53 15.9069C147.649 16.0975 147.798 16.2644 147.977 16.4073C148.167 16.5384 148.376 16.6397 148.602 16.7112C148.84 16.7827 149.085 16.8184 149.335 16.8184C149.788 16.8184 150.187 16.735 150.532 16.5682C150.878 16.4014 151.188 16.175 151.462 15.889L153.267 17.301C152.695 17.9087 152.058 18.3496 151.355 18.6237C150.652 18.8859 149.895 19.0169 149.085 19.0169C148.465 19.0169 147.887 18.9276 147.351 18.7488C146.827 18.582 146.368 18.3318 145.975 17.9981C145.581 17.6526 145.272 17.2295 145.045 16.7291C144.819 16.2286 144.706 15.6566 144.706 15.0132C144.706 14.2506 144.837 13.5416 145.099 12.8862C145.373 12.2189 145.742 11.641 146.207 11.1524C146.684 10.6639 147.25 10.2826 147.905 10.0085C148.56 9.72252 149.281 9.57953 150.068 9.57953C150.652 9.57953 151.182 9.66294 151.659 9.82976C152.147 9.99658 152.564 10.2409 152.91 10.5626C153.255 10.8724 153.523 11.2597 153.714 11.7244C153.905 12.1891 154 12.7253 154 13.333C154 13.5475 153.976 13.8216 153.929 14.1552C153.893 14.477 153.839 14.7808 153.768 15.0668H147.387ZM151.444 13.3152C151.456 13.2556 151.462 13.196 151.462 13.1364C151.462 13.0768 151.462 13.0173 151.462 12.9577C151.462 12.5645 151.319 12.2368 151.033 11.9746C150.759 11.7125 150.36 11.5814 149.835 11.5814C149.514 11.5814 149.222 11.641 148.96 11.7601C148.709 11.8674 148.489 12.0044 148.298 12.1712C148.108 12.3381 147.953 12.5228 147.834 12.7253C147.714 12.9279 147.631 13.1245 147.583 13.3152H151.444Z" fill="#002D56"/>
<path d="M65.0762 26.3703C64.8379 26.0486 64.54 25.8043 64.1825 25.6375C63.8251 25.4707 63.4259 25.3873 62.985 25.3873C62.7824 25.3873 62.5679 25.4171 62.3415 25.4767C62.1151 25.5243 61.9066 25.6137 61.7159 25.7448C61.5372 25.8639 61.3823 26.0188 61.2512 26.2095C61.1321 26.4001 61.0725 26.6325 61.0725 26.9066C61.0725 27.264 61.2095 27.55 61.4836 27.7645C61.7696 27.9671 62.1628 28.1577 62.6633 28.3365C63.2114 28.5271 63.6999 28.7416 64.1289 28.9799C64.5579 29.2063 64.9213 29.4685 65.2192 29.7664C65.5171 30.0643 65.7435 30.4039 65.8984 30.7852C66.0533 31.1546 66.1308 31.5776 66.1308 32.0542C66.1308 32.8169 65.9699 33.4663 65.6482 34.0025C65.3384 34.5387 64.9332 34.9796 64.4328 35.3252C63.9323 35.6588 63.3723 35.9031 62.7526 36.058C62.133 36.2129 61.5193 36.2903 60.9116 36.2903C60.4588 36.2903 60.006 36.2486 59.5532 36.1652C59.1004 36.0818 58.6655 35.9627 58.2484 35.8078C57.8314 35.6409 57.4441 35.4324 57.0866 35.1822C56.7291 34.9319 56.4253 34.6459 56.175 34.3242L58.3735 32.5368C58.6238 32.9181 58.9932 33.228 59.4817 33.4663C59.9703 33.7046 60.4648 33.8238 60.9652 33.8238C61.2274 33.8238 61.4776 33.7999 61.7159 33.7523C61.9662 33.6927 62.1866 33.6033 62.3773 33.4841C62.5679 33.3531 62.7169 33.1922 62.8241 33.0016C62.9433 32.799 63.0029 32.5607 63.0029 32.2866C63.0029 31.8457 62.8241 31.5001 62.4667 31.2499C62.1092 30.9878 61.6325 30.7554 61.0367 30.5528C60.6197 30.4098 60.2265 30.249 59.8571 30.0702C59.4996 29.8915 59.1838 29.6711 58.9098 29.4089C58.6476 29.1468 58.4331 28.8369 58.2663 28.4795C58.1114 28.1101 58.0339 27.6692 58.0339 27.1568C58.0339 26.5133 58.165 25.9354 58.4272 25.423C58.7012 24.8987 59.0706 24.4578 59.5353 24.1004C60.0001 23.731 60.5422 23.4509 61.1619 23.2603C61.7815 23.0577 62.4428 22.9564 63.1459 22.9564C63.5153 22.9564 63.8906 22.9922 64.2719 23.0637C64.6532 23.1352 65.0167 23.2424 65.3622 23.3854C65.7197 23.5165 66.0474 23.6833 66.3453 23.8859C66.6432 24.0884 66.8934 24.3208 67.096 24.583L65.0762 26.3703Z" fill="#002D56"/>
<path d="M72.3323 36.201C71.6889 36.201 71.0871 36.1116 70.5271 35.9329C69.9789 35.7541 69.5023 35.4979 69.0972 35.1643C68.7039 34.8187 68.3882 34.4076 68.1498 33.931C67.9234 33.4424 67.8102 32.8943 67.8102 32.2866C67.8102 31.5478 67.9354 30.8448 68.1856 30.1775C68.4358 29.5102 68.7933 28.9263 69.258 28.4258C69.7347 27.9254 70.3066 27.5262 70.9739 27.2283C71.6412 26.9304 72.3979 26.7814 73.2439 26.7814C73.8993 26.7814 74.507 26.8708 75.067 27.0496C75.6271 27.2283 76.1097 27.4904 76.5148 27.836C76.92 28.1696 77.2357 28.5807 77.4621 29.0693C77.7004 29.5459 77.8196 30.0881 77.8196 30.6958C77.8196 31.4465 77.6945 32.1555 77.4443 32.8228C77.194 33.4901 76.8306 34.074 76.354 34.5745C75.8773 35.0749 75.2994 35.4741 74.6202 35.772C73.9529 36.058 73.1903 36.201 72.3323 36.201ZM74.9955 30.9997C74.9955 30.4635 74.8287 30.0166 74.4951 29.6591C74.1733 29.3017 73.7146 29.1229 73.1188 29.1229C72.7375 29.1229 72.3919 29.2004 72.0821 29.3553C71.7723 29.5102 71.5101 29.7187 71.2956 29.9809C71.0812 30.243 70.9143 30.5469 70.7952 30.8924C70.676 31.238 70.6164 31.6014 70.6164 31.9827C70.6164 32.519 70.7773 32.9658 71.099 33.3233C71.4208 33.6688 71.8795 33.8416 72.4753 33.8416C72.8566 33.8416 73.2022 33.7701 73.512 33.6271C73.8218 33.4722 74.084 33.2637 74.2985 33.0016C74.5249 32.7394 74.6976 32.4355 74.8168 32.09C74.936 31.7444 74.9955 31.381 74.9955 30.9997Z" fill="#002D56"/>
<path d="M79.1776 35.9507L81.5548 22.4381H84.4683L82.0732 35.9507H79.1776Z" fill="#002D56"/>
<path d="M90.7406 34.6638C90.4665 35.0928 90.0852 35.4562 89.5967 35.7541C89.12 36.0401 88.5719 36.1831 87.9523 36.1831C87.4637 36.1831 87.0407 36.1056 86.6832 35.9507C86.3258 35.8078 86.0279 35.6111 85.7895 35.3609C85.5631 35.1107 85.3963 34.8247 85.2891 34.503C85.1818 34.1693 85.1282 33.8238 85.1282 33.4663C85.1282 33.3114 85.1342 33.1565 85.1461 33.0016C85.158 32.8347 85.1818 32.6679 85.2176 32.5011L86.1649 27.0496H89.0426L88.1846 31.8755C88.1608 32.0066 88.1429 32.1376 88.131 32.2687C88.1191 32.3879 88.1131 32.507 88.1131 32.6262C88.1131 32.9479 88.1966 33.228 88.3634 33.4663C88.5421 33.7046 88.8519 33.8238 89.2928 33.8238C89.555 33.8238 89.7873 33.7701 89.9899 33.6629C90.2044 33.5556 90.3891 33.4127 90.544 33.2339C90.6989 33.0552 90.83 32.8466 90.9372 32.6083C91.0445 32.37 91.1219 32.1198 91.1696 31.8576L92.0275 27.0496H94.8873L93.6362 34.1097C93.5885 34.3361 93.5349 34.6281 93.4753 34.9856C93.4276 35.343 93.3919 35.6648 93.3681 35.9507H90.6512C90.6632 35.8078 90.681 35.6052 90.7049 35.343C90.7406 35.069 90.7704 34.8426 90.7942 34.6638H90.7406Z" fill="#002D56"/>
<path d="M96.1431 29.2123L96.5364 27.0496H97.9484L98.3595 24.6902H101.148L100.737 27.0496H102.631L102.238 29.2123H100.397L99.7536 32.6977C99.7417 32.7811 99.7298 32.8705 99.7179 32.9658C99.7179 33.0492 99.7179 33.1207 99.7179 33.1803C99.7179 33.4782 99.8013 33.6808 99.9681 33.788C100.135 33.8952 100.361 33.9489 100.647 33.9489C100.79 33.9489 100.927 33.937 101.058 33.9131C101.201 33.8893 101.327 33.8655 101.434 33.8416L101.166 35.8971C100.999 35.9686 100.761 36.0282 100.451 36.0759C100.153 36.1354 99.8668 36.1652 99.5928 36.1652C98.7348 36.1652 98.0556 35.9924 97.5552 35.6469C97.0666 35.3013 96.8223 34.7532 96.8223 34.0025C96.8223 33.8595 96.8283 33.6986 96.8402 33.5199C96.864 33.3292 96.8938 33.1505 96.9296 32.9837L97.6088 29.2123H96.1431Z" fill="#002D56"/>
<path d="M103.029 35.9507L104.584 27.0496H107.462L105.871 35.9507H103.029ZM108.07 24.0646C108.07 24.3029 108.028 24.5234 107.944 24.726C107.861 24.9285 107.742 25.1132 107.587 25.28C107.444 25.4349 107.271 25.5601 107.069 25.6554C106.866 25.7388 106.646 25.7805 106.407 25.7805C105.955 25.7805 105.579 25.6494 105.281 25.3873C104.995 25.1132 104.852 24.7677 104.852 24.3506C104.852 23.862 105.013 23.4569 105.335 23.1352C105.669 22.8015 106.074 22.6347 106.55 22.6347C106.991 22.6347 107.355 22.7717 107.641 23.0458C107.927 23.3199 108.07 23.6595 108.07 24.0646Z" fill="#002D56"/>
<path d="M113.324 36.201C112.68 36.201 112.078 36.1116 111.518 35.9329C110.97 35.7541 110.494 35.4979 110.088 35.1643C109.695 34.8187 109.379 34.4076 109.141 33.931C108.915 33.4424 108.801 32.8943 108.801 32.2866C108.801 31.5478 108.927 30.8448 109.177 30.1775C109.427 29.5102 109.785 28.9263 110.249 28.4258C110.726 27.9254 111.298 27.5262 111.965 27.2283C112.632 26.9304 113.389 26.7814 114.235 26.7814C114.89 26.7814 115.498 26.8708 116.058 27.0496C116.618 27.2283 117.101 27.4904 117.506 27.836C117.911 28.1696 118.227 28.5807 118.453 29.0693C118.692 29.5459 118.811 30.0881 118.811 30.6958C118.811 31.4465 118.686 32.1555 118.435 32.8228C118.185 33.4901 117.822 34.074 117.345 34.5745C116.869 35.0749 116.291 35.4741 115.611 35.772C114.944 36.058 114.181 36.201 113.324 36.201ZM115.987 30.9997C115.987 30.4635 115.82 30.0166 115.486 29.6591C115.165 29.3017 114.706 29.1229 114.11 29.1229C113.729 29.1229 113.383 29.2004 113.073 29.3553C112.763 29.5102 112.501 29.7187 112.287 29.9809C112.072 30.243 111.906 30.5469 111.786 30.8924C111.667 31.238 111.608 31.6014 111.608 31.9827C111.608 32.519 111.769 32.9658 112.09 33.3233C112.412 33.6688 112.871 33.8416 113.467 33.8416C113.848 33.8416 114.193 33.7701 114.503 33.6271C114.813 33.4722 115.075 33.2637 115.29 33.0016C115.516 32.7394 115.689 32.4355 115.808 32.09C115.927 31.7444 115.987 31.381 115.987 30.9997Z" fill="#002D56"/>
<path d="M124.298 28.3365C124.584 27.8956 124.965 27.5321 125.442 27.2462C125.918 26.9602 126.466 26.8172 127.086 26.8172C127.586 26.8172 128.015 26.8887 128.373 27.0317C128.73 27.1747 129.022 27.3713 129.249 27.6215C129.487 27.8718 129.66 28.1637 129.767 28.4973C129.874 28.8191 129.928 29.1587 129.928 29.5161C129.928 29.683 129.922 29.8498 129.91 30.0166C129.898 30.1715 129.874 30.3264 129.839 30.4813L128.873 35.9507H126.014L126.854 31.1248C126.913 30.8507 126.943 30.6005 126.943 30.3741C126.943 30.0404 126.854 29.7604 126.675 29.534C126.508 29.2957 126.204 29.1765 125.763 29.1765C125.501 29.1765 125.263 29.2302 125.048 29.3374C124.846 29.4327 124.661 29.5698 124.494 29.7485C124.339 29.9272 124.208 30.1358 124.101 30.3741C124.006 30.6124 123.934 30.8626 123.887 31.1248L123.029 35.9507H120.169L121.402 28.8906C121.45 28.6642 121.497 28.3722 121.545 28.0147C121.605 27.6573 121.646 27.3355 121.67 27.0496H124.405C124.393 27.1925 124.369 27.3951 124.333 27.6573C124.31 27.9194 124.286 28.1458 124.262 28.3365H124.298Z" fill="#002D56"/>
<path d="M132.56 33.1088C132.786 33.4424 133.084 33.6986 133.453 33.8774C133.835 34.0442 134.222 34.1276 134.615 34.1276C134.996 34.1276 135.3 34.0561 135.527 33.9131C135.765 33.7701 135.884 33.5735 135.884 33.3233C135.884 33.085 135.777 32.9003 135.562 32.7692C135.348 32.6381 135.032 32.507 134.615 32.376C134.198 32.2568 133.829 32.1257 133.507 31.9827C133.197 31.8278 132.935 31.6551 132.72 31.4644C132.506 31.2618 132.345 31.0354 132.238 30.7852C132.131 30.523 132.077 30.2192 132.077 29.8736C132.077 29.3851 132.184 28.9501 132.399 28.5688C132.625 28.1875 132.917 27.8658 133.275 27.6036C133.644 27.3296 134.073 27.127 134.561 26.9959C135.05 26.8529 135.562 26.7814 136.099 26.7814C136.79 26.7814 137.433 26.9006 138.029 27.1389C138.637 27.3653 139.119 27.7049 139.477 28.1577L137.672 29.677C137.505 29.4387 137.272 29.2421 136.974 29.0872C136.688 28.9323 136.343 28.8548 135.938 28.8548C135.628 28.8548 135.342 28.9144 135.08 29.0336C134.83 29.1527 134.704 29.3553 134.704 29.6413C134.704 29.8438 134.8 30.0047 134.99 30.1239C135.181 30.2311 135.473 30.3383 135.866 30.4456C136.7 30.672 137.356 30.9878 137.832 31.3929C138.321 31.7861 138.565 32.364 138.565 33.1267C138.565 33.6629 138.446 34.1336 138.208 34.5387C137.981 34.9319 137.677 35.2596 137.296 35.5218C136.927 35.772 136.498 35.9567 136.009 36.0759C135.533 36.2069 135.044 36.2725 134.544 36.2725C133.721 36.2725 132.989 36.1354 132.345 35.8614C131.702 35.5873 131.177 35.212 130.772 34.7353L132.56 33.1088Z" fill="#002D56"/>
</svg>
