<svg width="40" height="40" viewBox="0 0 40 40" fill="none" xmlns="http://www.w3.org/2000/svg">
<rect width="40" height="40" rx="4" fill="currentColor"/>
<path d="M27.7484 15.2055C27.3072 14.188 26.671 13.2668 25.8758 12.4937C25.0779 11.7137 24.1374 11.0947 23.1055 10.6703C22.032 10.225 20.893 10 19.7188 10C18.5445 10 17.4055 10.225 16.332 10.668C15.2937 11.0969 14.3633 11.7109 13.5617 12.4914C12.767 13.2649 12.1309 14.186 11.6891 15.2031C11.232 16.2578 11 17.3781 11 18.5312C11 20.1859 11.3961 21.8336 12.1742 23.4227C12.8 24.7 13.6742 25.9445 14.7758 27.1281C16.6578 29.1484 18.6312 30.3836 19.1914 30.7141C19.3504 30.808 19.5317 30.8573 19.7164 30.857C19.8992 30.857 20.0797 30.8102 20.2414 30.7141C20.8016 30.3836 22.775 29.1484 24.657 27.1281C25.7586 25.9469 26.6328 24.7 27.2586 23.4227C28.0414 21.8359 28.4375 20.1906 28.4375 18.5336C28.4375 17.3805 28.2055 16.2602 27.7484 15.2055ZM19.7188 29.0594C18.1742 28.0773 12.6875 24.1891 12.6875 18.5336C12.6875 16.7078 13.4164 14.9922 14.7406 13.6984C16.0695 12.4023 17.8367 11.6875 19.7188 11.6875C21.6008 11.6875 23.368 12.4023 24.6969 13.7008C26.0211 14.9922 26.75 16.7078 26.75 18.5336C26.75 24.1891 21.2633 28.0773 19.7188 29.0594ZM19.7188 14.5938C17.4406 14.5938 15.5938 16.4406 15.5938 18.7188C15.5938 20.9969 17.4406 22.8438 19.7188 22.8438C21.9969 22.8438 23.8438 20.9969 23.8438 18.7188C23.8438 16.4406 21.9969 14.5938 19.7188 14.5938ZM21.575 20.575C21.3315 20.8192 21.0422 21.0128 20.7236 21.1447C20.4051 21.2766 20.0636 21.3443 19.7188 21.3438C19.018 21.3438 18.3594 21.0695 17.8625 20.575C17.6183 20.3315 17.4247 20.0422 17.2928 19.7236C17.1609 19.4051 17.0932 19.0636 17.0938 18.7188C17.0938 18.018 17.368 17.3594 17.8625 16.8625C18.3594 16.3656 19.018 16.0938 19.7188 16.0938C20.4195 16.0938 21.0781 16.3656 21.575 16.8625C22.0719 17.3594 22.3438 18.018 22.3438 18.7188C22.3438 19.4195 22.0719 20.0781 21.575 20.575Z" fill="white"/>
</svg>
