<svg width="122" height="43" viewBox="0 0 122 43" fill="none" xmlns="http://www.w3.org/2000/svg">
  <path d="M77.4199 21.5764C76.7262 21.3141 75.9947 21.1653 75.2537 21.1357C74.4293 21.1357 73.784 21.3518 73.784 22.1023C73.784 23.8762 78.3495 22.7845 78.3495 26.4347C78.3495 28.9051 76.3453 29.8461 74.0853 29.8461C73.0596 29.8442 72.0397 29.6929 71.0577 29.3969L71.2368 27.2307C72.1231 27.5226 73.0451 27.6918 73.9773 27.7339C74.8529 27.7339 75.5692 27.4496 75.5692 26.6962C75.5692 24.7972 71.0065 26.014 71.0065 22.3809C71.0065 20.1066 72.9198 19.177 75.0319 19.177C76.0055 19.1655 76.9741 19.3173 77.8975 19.6262L77.4199 21.5764ZM69.0763 21.5764C68.3832 21.3154 67.6529 21.1667 66.9129 21.1357C66.0885 21.1357 65.4261 21.3518 65.4261 22.1023C65.4261 23.8762 70.0087 22.7845 70.0087 26.4347C70.0087 28.9051 67.9875 29.8461 65.7445 29.8461C64.7079 29.8417 63.6771 29.6905 62.6828 29.3969L62.879 27.2307C63.7713 27.5218 64.6989 27.6911 65.6365 27.7339C66.4893 27.7339 67.2114 27.4496 67.2114 26.6962C67.2114 24.7972 62.6288 26.014 62.6288 22.3809C62.6288 20.1066 64.5619 19.177 66.6542 19.177C67.6397 19.168 68.6201 19.3197 69.5567 19.6262L69.0763 21.5764ZM111.249 19.16C113.239 19.16 114.399 20.2346 114.399 22.5713V29.6243H111.75V23.1257C111.75 22.071 111.445 21.3717 110.328 21.3717C109.211 21.3717 108.216 22.3553 108.216 24.1263V29.6414H105.623V23.1257C105.623 22.1421 105.299 21.3717 104.171 21.3717C102.991 21.3717 102.078 22.4633 102.078 24.2344V29.6357H99.3947V19.376C101.146 19.16 101.808 19.8764 101.882 21.022C102.192 20.4459 102.655 19.9669 103.221 19.6382C103.786 19.3095 104.432 19.144 105.086 19.16C106.928 19.16 107.662 20.1805 107.929 21.1499C108.375 20.1322 109.521 19.16 111.258 19.16H111.249ZM57.2815 19.376C56.713 22.4178 55.2404 27.2165 54.3108 29.6328H51.5192L49.5491 22.8101H49.515L47.5449 29.6328H44.7704C43.8749 27.2506 42.263 22.2927 41.7996 19.376H44.4292L46.1662 26.429H46.2031L48.2784 19.376H50.9108L52.932 26.375H52.969L54.723 19.376H57.2815ZM40.2247 21.5764C39.531 21.3141 38.7996 21.1653 38.0585 21.1357C37.2341 21.1357 36.6087 21.3518 36.6087 22.1023C36.6087 23.8762 41.1572 22.7845 41.1572 26.4347C41.1572 28.9051 39.153 29.8461 36.893 29.8461C35.8682 29.8445 34.8492 29.6932 33.8682 29.3969L34.0274 27.2307C34.9197 27.5218 35.8473 27.6911 36.7849 27.7339C37.6605 27.7339 38.3769 27.4496 38.3769 26.6962C38.3769 24.7972 33.8284 26.014 33.8284 22.3809C33.8284 20.1066 35.7416 19.177 37.8538 19.177C38.8273 19.1671 39.7956 19.3189 40.7194 19.6262L40.2247 21.5764ZM92.8478 29.8461C89.931 29.8461 87.8899 28.2541 87.8899 24.675C87.8899 21.4712 90.0391 19.16 93.1519 19.16C96.0516 19.16 97.9307 20.7918 97.9307 24.277C97.9307 27.6258 95.8924 29.8432 92.8478 29.8432V29.8461ZM92.9558 21.42C91.776 21.42 90.6474 22.2956 90.6474 24.5471C90.6474 26.4972 91.3809 27.5889 92.9217 27.5889C94.2294 27.5889 95.2329 26.5342 95.2329 24.4618C95.2329 22.4718 94.5165 21.42 92.9586 21.42H92.9558ZM58.4812 29.6357H61.1136V19.376C59.877 19.251 58.4812 19.5921 58.4812 21.5252V29.6357ZM59.9196 18.0883C60.1392 18.0958 60.3581 18.0595 60.5635 17.9813C60.7688 17.903 60.9564 17.7846 61.1154 17.6328C61.2743 17.4811 61.4012 17.2991 61.4888 17.0976C61.5764 16.896 61.6228 16.679 61.6253 16.4593C61.6076 16.032 61.4254 15.6281 61.1168 15.332C60.8082 15.0359 60.3971 14.8706 59.9694 14.8706C59.5417 14.8706 59.1306 15.0359 58.822 15.332C58.5134 15.6281 58.3312 16.032 58.3135 16.4593C58.3178 16.8861 58.4876 17.2945 58.7873 17.5984C59.087 17.9023 59.493 18.078 59.9196 18.0883ZM84.4786 29.8119C81.4339 29.8119 79.4468 28.291 79.4468 24.658C79.4468 21.5764 81.1525 19.1969 84.8879 19.1969C85.7419 19.1985 86.5895 19.3436 87.3953 19.6262L86.8267 21.7754C86.2339 21.5419 85.6045 21.4149 84.9675 21.4001C83.0515 21.4001 82.264 22.6509 82.264 24.5272C82.264 26.3551 82.9804 27.5718 84.8595 27.5718C85.5747 27.5656 86.281 27.4128 86.9347 27.1227L87.2389 29.2349C86.7272 29.5618 85.6356 29.8119 84.4899 29.8119H84.4786Z" fill="#001155"/>
  <path d="M16.6837 17.4543C16.358 17.4927 16.0487 17.6188 15.7889 17.819C15.5291 18.0193 15.3284 18.2862 15.2083 18.5915C14.9468 19.1742 14.8046 19.8167 14.4209 20.3398C13.6249 21.4314 11.561 21.1756 11.2455 22.6737C10.7821 24.874 13.6448 25.3374 14.4948 26.8697C15.1174 28.0068 14.8132 29.7551 15.9901 30.5483C16.17 30.6662 16.3678 30.7545 16.5757 30.8098C16.6121 30.8198 16.6492 30.8274 16.6866 30.8325L16.6837 17.4543Z" fill="white"/>
  <path d="M16.6865 30.8384L16.5756 30.8156C16.3668 30.7604 16.1681 30.6721 15.9871 30.5541C14.8102 29.7609 15.1144 27.9956 14.4947 26.8755C14.2745 26.5116 13.9847 26.1947 13.6418 25.9431L13.6106 25.9175C13.4741 26.0539 13.2723 26.2671 12.9454 26.5941C12.6913 26.8534 12.4531 27.1278 12.2318 27.4156C12.9925 28.1819 13.6259 29.0649 14.1081 30.031C14.6766 31.3074 14.8301 32.6975 15.2736 34.0109C15.4221 34.504 15.6445 34.9717 15.9331 35.3982C16.1192 35.6763 16.3818 35.8945 16.6893 36.0265V30.8241L16.6865 30.8384Z" fill="url(#paint0_linear_210_707)"/>
  <path d="M15.2877 14.6514C15.4128 14.7879 15.572 14.9527 15.7142 15.1006C15.8563 15.2484 16.0496 15.4474 16.2571 15.6464C16.3851 15.7686 16.5414 15.9307 16.675 16.0444V10.0319C16.5357 10.0037 16.3933 9.99416 16.2514 10.0034C15.8931 10.0238 15.5397 10.0966 15.2024 10.2195C14.9013 10.3248 14.6212 10.4827 14.3752 10.6857C14.0978 10.9107 13.9053 11.2236 13.8294 11.5727C13.7528 12.0598 13.8366 12.5587 14.0682 12.9941C14.2092 13.2932 14.3777 13.5787 14.5713 13.8469C14.5713 13.8469 14.7135 14.0203 14.7931 14.1084C14.9551 14.2733 15.1228 14.4609 15.2877 14.6514Z" fill="url(#paint1_radial_210_707)"/>
  <path d="M24.8823 19.3022C24.8121 18.3917 24.5821 17.5006 24.2029 16.6698C23.8692 15.9539 23.4132 15.3017 22.8554 14.7424C22.8014 14.6883 22.7446 14.6315 22.6877 14.5803C22.3748 14.2879 22.0361 14.0243 21.6757 13.7929C21.3208 13.565 20.947 13.3682 20.5584 13.2044C19.9186 12.9345 19.2404 12.7666 18.5486 12.7069C17.9127 12.6342 17.269 12.7323 16.6837 12.9912V16.033C17.0249 16.3457 17.4342 16.7209 17.6417 16.9057C17.7867 17.0336 17.926 17.1559 18.071 17.281L18.4946 17.6363L18.9352 18.0087C19.1172 18.1622 19.771 18.691 19.8477 18.7564L19.9757 18.8587L21.6273 20.1977L21.6643 20.2261C21.886 20.4052 23.026 21.3234 23.586 21.8039C24.1461 22.2843 24.5668 22.6567 24.6066 22.6993C24.7172 22.2002 24.7998 21.6953 24.8539 21.187C24.9196 20.5608 24.9291 19.93 24.8823 19.3022Z" fill="url(#paint2_radial_210_707)"/>
  <path d="M28.4641 28.1234C28.2653 27.3759 27.9506 26.6642 27.5317 26.014C26.939 25.1051 26.2458 24.2659 25.465 23.5123C25.1807 23.2281 24.8964 22.9722 24.6122 22.7021C24.5837 22.8301 24.5127 23.1343 24.3705 23.5976C24.2966 23.8393 24.163 24.2373 24.1118 24.3879C24.0351 24.6068 23.8872 24.9991 23.7877 25.2408C23.6513 25.5961 23.4352 26.0936 23.2419 26.5087C22.9633 27.1056 22.807 27.3899 22.4971 27.9585C22.3578 28.2115 22.2384 28.4531 22.065 28.7545C22.0053 28.8568 21.9428 28.9648 21.8689 29.0842C21.8376 29.1326 21.4794 29.7125 21.4424 29.7779C21.3714 29.8887 21.2918 30.0167 21.2434 30.0877C20.8142 30.7444 20.7772 30.7757 20.709 30.8723C20.5498 31.0884 20.7658 30.7927 20.4645 31.2163L19.751 32.2227C19.6458 32.3677 19.2904 32.8339 18.8981 33.32C18.5058 33.8061 18.1021 34.3377 17.923 34.5509L16.6694 36.0292V38.9999C17.1981 38.9573 17.7496 38.8833 18.3154 38.781C19.0395 38.6455 19.7552 38.468 20.4588 38.2494C21.0753 38.0571 21.6807 37.8312 22.2725 37.5728C22.8041 37.3404 23.3223 37.0785 23.8247 36.7882C24.4698 36.4157 25.0806 35.9867 25.6498 35.5061C26.2904 34.9665 26.8556 34.343 27.3299 33.6526C27.825 32.9308 28.1888 32.1272 28.4044 31.2789C28.5269 30.7938 28.5993 30.2975 28.6205 29.7978C28.6494 29.235 28.5967 28.671 28.4641 28.1234Z" fill="url(#paint3_radial_210_707)"/>
  <path d="M15.9304 35.4123C15.6418 34.9858 15.4194 34.518 15.2708 34.025C14.8274 32.7002 14.6852 31.3101 14.1053 30.0451C13.6237 29.0793 12.9913 28.1964 12.2319 27.4297C12.032 27.6889 11.8488 27.9604 11.6832 28.2427C11.5329 28.5004 11.4073 28.7716 11.308 29.0529C11.2563 29.2122 11.2145 29.3746 11.1829 29.539C11.1511 29.7079 11.1321 29.879 11.126 30.0507C11.1183 30.2723 11.1316 30.4941 11.1658 30.7131C11.2047 30.9551 11.2656 31.193 11.3478 31.4238C11.4546 31.7204 11.5897 32.006 11.7515 32.2767L11.8225 32.3932C12.1572 32.931 12.5647 33.4199 13.0336 33.8459C13.2978 34.0901 13.5759 34.3189 13.8665 34.531C14.0627 34.6703 14.2617 34.8153 14.4663 34.9318C14.7506 35.1024 15.0207 35.2616 15.305 35.4094C15.6916 35.6084 16.2999 35.8842 16.6894 36.0405C16.3809 35.909 16.1172 35.6908 15.9304 35.4123Z" fill="url(#paint4_radial_210_707)"/>
  <path d="M24.6067 22.6993C24.5669 22.6624 24.1092 22.2502 23.5861 21.8039C23.0631 21.3575 21.8804 20.4052 21.6644 20.2261L21.6274 20.1977L19.9758 18.8616C19.9132 18.8132 19.8706 18.7763 19.8478 18.7564C19.7711 18.6938 19.1172 18.1651 18.9353 18.0116L18.4947 17.642L18.0739 17.2923C17.9204 17.1673 17.7897 17.045 17.6418 16.9142C17.4343 16.7323 17.0249 16.3457 16.6838 16.0443C16.553 15.9221 16.3995 15.7601 16.2688 15.6492C16.0612 15.4502 15.902 15.291 15.7258 15.1034C15.5495 14.9158 15.4245 14.7907 15.2994 14.6542C15.1231 14.4638 14.9554 14.2761 14.8047 14.0999L14.6342 13.9009C14.7337 14.0629 14.9412 14.3614 15.0464 14.5092C15.3306 14.93 15.2766 14.8418 15.5609 15.2683C15.7542 15.5525 16.0811 16.0813 16.2602 16.3826C16.2833 16.4203 16.3042 16.4592 16.3228 16.4992C16.4331 16.7052 16.5281 16.9189 16.6071 17.1388C16.645 17.2393 16.6689 17.3445 16.6781 17.4515C16.6781 17.4515 16.6781 30.8269 16.6781 30.8354V36.0377L17.9318 34.5595C18.1109 34.3463 18.5203 33.826 18.9069 33.3285C19.2935 32.8311 19.6403 32.3762 19.7597 32.2312L20.4733 31.2135C20.7746 30.7899 20.5585 31.0856 20.7177 30.8695C20.786 30.7729 20.8229 30.7416 21.2522 30.0849L21.4512 29.775C21.4881 29.7097 21.8463 29.1297 21.8776 29.0786C21.9515 28.962 22.0141 28.854 22.0738 28.7516C22.2472 28.4503 22.358 28.2087 22.5059 27.9557C22.8157 27.3871 22.9664 27.1028 23.245 26.5115C23.4383 26.0908 23.6544 25.5961 23.7908 25.2436C23.8903 24.9963 24.0381 24.6012 24.112 24.3908C24.1661 24.2373 24.2997 23.8421 24.3736 23.6005C24.5157 23.1343 24.5868 22.8301 24.6152 22.7022L24.6067 22.6993Z" fill="url(#paint5_radial_210_707)"/>
  <path d="M12.229 27.4157C12.4502 27.1278 12.6885 26.8535 12.9425 26.5941C13.2695 26.2672 13.4713 26.0568 13.6078 25.9175C12.4706 25.0221 10.8929 24.3512 11.2454 22.6796C11.5609 21.1814 13.6248 21.4373 14.4208 20.3457C14.8046 19.8226 14.9467 19.1801 15.2083 18.5973C15.3284 18.2921 15.529 18.0251 15.7888 17.8249C16.0486 17.6247 16.3579 17.4986 16.6837 17.4602C16.6747 17.3523 16.6508 17.2461 16.6126 17.1447C16.5341 16.9255 16.4391 16.7126 16.3283 16.5079C16.3103 16.4667 16.2894 16.4268 16.2658 16.3885C16.0867 16.09 15.7598 15.5669 15.5665 15.2741C15.2822 14.8477 15.3447 14.9358 15.0519 14.5179C14.9467 14.3673 14.7392 14.0688 14.6397 13.9067C14.6211 13.8872 14.604 13.8663 14.5885 13.8442C14.3943 13.5764 14.2258 13.2908 14.0854 12.9914L14.0114 12.8123L13.0904 13.4945C12.3626 14.029 11.6292 14.5577 10.9213 15.1178C10.4551 15.4845 9.99741 15.8654 9.55962 16.2549C9.12677 16.6435 8.72119 17.0614 8.34574 17.5057C7.64357 18.3585 7.08923 19.3137 7.00963 20.4054C6.99679 20.5833 6.99679 20.7619 7.00963 20.9398C7.02018 21.1309 7.04489 21.3209 7.08354 21.5084C7.22104 22.1702 7.5068 22.7923 7.91932 23.3278C8.38128 23.9178 8.90549 24.4563 9.48286 24.9339L9.76714 25.1869C10.4352 25.7555 11.1146 26.3241 11.7571 26.9495C11.939 27.12 12.1125 27.2991 12.2859 27.4811L12.2318 27.4214L12.229 27.4157Z" fill="url(#paint6_radial_210_707)"/>
  <defs>
  <linearGradient id="paint0_linear_210_707" x1="16.297" y1="36.143" x2="13.6163" y2="25.9146" gradientUnits="userSpaceOnUse">
  <stop stop-color="#350706"/>
  <stop offset="0.36" stop-color="#3F0808"/>
  <stop offset="0.98" stop-color="#5B0C0E"/>
  <stop offset="1" stop-color="#5C0C0E"/>
  </linearGradient>
  <radialGradient id="paint1_radial_210_707" cx="0" cy="0" r="1" gradientUnits="userSpaceOnUse" gradientTransform="translate(16.621 15.5327) scale(5.73392 5.73392)">
  <stop stop-color="#003789"/>
  <stop offset="1" stop-color="#5FC7FF" stop-opacity="0.98"/>
  </radialGradient>
  <radialGradient id="paint2_radial_210_707" cx="0" cy="0" r="1" gradientUnits="userSpaceOnUse" gradientTransform="translate(20.4675 14.7566) scale(6.84546 6.84545)">
  <stop stop-color="#EC0A1C"/>
  <stop offset="1" stop-color="#BB0E15"/>
  </radialGradient>
  <radialGradient id="paint3_radial_210_707" cx="0" cy="0" r="1" gradientUnits="userSpaceOnUse" gradientTransform="translate(26.784 24.5073) scale(11.7578 11.7578)">
  <stop stop-color="#5BC0FF" stop-opacity="0.98"/>
  <stop offset="1" stop-color="#003789"/>
  </radialGradient>
  <radialGradient id="paint4_radial_210_707" cx="0" cy="0" r="1" gradientUnits="userSpaceOnUse" gradientTransform="translate(11.8254 29.2178) scale(7.68124 7.68123)">
  <stop stop-color="#42B4F3" stop-opacity="0.98"/>
  <stop offset="1" stop-color="#003A80"/>
  </radialGradient>
  <radialGradient id="paint5_radial_210_707" cx="0" cy="0" r="1" gradientUnits="userSpaceOnUse" gradientTransform="translate(21.6815 20.0299) scale(13.5715 13.5715)">
  <stop stop-color="#5FC7FF"/>
  <stop offset="1" stop-color="#003785" stop-opacity="0.98"/>
  </radialGradient>
  <radialGradient id="paint6_radial_210_707" cx="0" cy="0" r="1" gradientUnits="userSpaceOnUse" gradientTransform="translate(9.94624 17.4119) scale(15.6866 15.6865)">
  <stop stop-color="#EC0A1C"/>
  <stop offset="1" stop-color="#9E0D18"/>
  </radialGradient>
  </defs>
</svg>
