<svg width="54" height="62" viewBox="0 0 54 62" fill="none" xmlns="http://www.w3.org/2000/svg">
<g filter="url(#filter0_d_276_871)">
<path d="M37.7859 13.4207C34.9066 10.6074 31.0777 9.05859 27 9.05859C22.9223 9.05859 19.0934 10.6074 16.2141 13.4156C13.3449 16.2188 11.7656 19.9359 11.7656 23.8918C11.7656 36.1453 23.6535 44.5699 27 46.6977C30.3465 44.5699 42.2344 36.1453 42.2344 23.8918C42.2344 19.9359 40.6551 16.2188 37.7859 13.4207ZM27 33.2305C22.0641 33.2305 18.0625 29.2289 18.0625 24.293C18.0625 19.357 22.0641 15.3555 27 15.3555C31.9359 15.3555 35.9375 19.357 35.9375 24.293C35.9375 29.2289 31.9359 33.2305 27 33.2305Z" fill="#E6F7FF"/>
<path d="M27 15.3555C22.0641 15.3555 18.0625 19.357 18.0625 24.293C18.0625 29.2289 22.0641 33.2305 27 33.2305C31.9359 33.2305 35.9375 29.2289 35.9375 24.293C35.9375 19.357 31.9359 15.3555 27 15.3555ZM31.0219 28.3148C30.4944 28.8439 29.8675 29.2634 29.1772 29.5492C28.487 29.8351 27.7471 29.9816 27 29.9805C25.4816 29.9805 24.0547 29.3863 22.9781 28.3148C22.4491 27.7873 22.0296 27.1604 21.7437 26.4702C21.4579 25.78 21.3113 25.04 21.3125 24.293C21.3125 22.7746 21.9066 21.3477 22.9781 20.2711C24.0547 19.1945 25.4816 18.6055 27 18.6055C28.5184 18.6055 29.9453 19.1945 31.0219 20.2711C32.0984 21.3477 32.6875 22.7746 32.6875 24.293C32.6875 25.8113 32.0984 27.2383 31.0219 28.3148Z" fill="#1890FF"/>
<path d="M44.3977 16.6809C43.4416 14.4763 42.0632 12.4803 40.3402 10.8055C38.6116 9.11547 36.5737 7.77412 34.3379 6.85469C32.0121 5.88984 29.5441 5.40234 27 5.40234C24.4559 5.40234 21.9879 5.88984 19.6621 6.84961C17.4125 7.77891 15.3965 9.10938 13.6598 10.8004C11.9379 12.4762 10.5596 14.472 9.60234 16.6758C8.61211 18.9609 8.10938 21.3883 8.10938 23.8867C8.10938 27.4719 8.96758 31.0418 10.6535 34.4848C12.0094 37.2523 13.9035 39.9488 16.2902 42.5133C20.368 46.8906 24.6437 49.5668 25.8574 50.2828C26.2019 50.4863 26.5948 50.5933 26.9949 50.5926C27.391 50.5926 27.782 50.491 28.1324 50.2828C29.3461 49.5668 33.6219 46.8906 37.6996 42.5133C40.0863 39.9539 41.9805 37.2523 43.3363 34.4848C45.0324 31.0469 45.8906 27.482 45.8906 23.8918C45.8906 21.3934 45.3879 18.966 44.3977 16.6809ZM27 46.6977C23.6535 44.5699 11.7656 36.1453 11.7656 23.8918C11.7656 19.9359 13.3449 16.2188 16.2141 13.4156C19.0934 10.6074 22.9223 9.05859 27 9.05859C31.0777 9.05859 34.9066 10.6074 37.7859 13.4207C40.6551 16.2188 42.2344 19.9359 42.2344 23.8918C42.2344 36.1453 30.3465 44.5699 27 46.6977Z" fill="#1890FF"/>
</g>
<defs>
<filter id="filter0_d_276_871" x="-7" y="-3" width="68" height="68" filterUnits="userSpaceOnUse" color-interpolation-filters="sRGB">
<feFlood flood-opacity="0" result="BackgroundImageFix"/>
<feColorMatrix in="SourceAlpha" type="matrix" values="0 0 0 0 0 0 0 0 0 0 0 0 0 0 0 0 0 0 127 0" result="hardAlpha"/>
<feOffset dy="3"/>
<feGaussianBlur stdDeviation="4"/>
<feColorMatrix type="matrix" values="0 0 0 0 0 0 0 0 0 0 0 0 0 0 0 0 0 0 0.35 0"/>
<feBlend mode="normal" in2="BackgroundImageFix" result="effect1_dropShadow_276_871"/>
<feBlend mode="normal" in="SourceGraphic" in2="effect1_dropShadow_276_871" result="shape"/>
</filter>
</defs>
</svg>
