<svg width="46" height="52" viewBox="0 0 46 52" fill="none"
    xmlns="http://www.w3.org/2000/svg">
    <g filter="url(#filter0_d_276_880)">
        <path class="marker--fill" d="M31.2969 17.7852C29.082 15.6211 26.1367 14.4297 23 14.4297C19.8633 14.4297 16.918 15.6211 14.7031 17.7813C12.4961 19.9375 11.2812 22.7969 11.2812 25.8398C11.2812 35.2656 20.4258 41.7461 23 43.3828C25.5742 41.7461 34.7188 35.2656 34.7188 25.8398C34.7188 22.7969 33.5039 19.9375 31.2969 17.7852V17.7852ZM23 33.0234C19.2031 33.0234 16.125 29.9453 16.125 26.1484C16.125 22.3516 19.2031 19.2734 23 19.2734C26.7969 19.2734 29.875 22.3516 29.875 26.1484C29.875 29.9453 26.7969 33.0234 23 33.0234Z" fill="#DEEECC"/>
        <path class="marker--inner" d="M23 19.2734C19.2031 19.2734 16.125 22.3516 16.125 26.1484C16.125 29.9453 19.2031 33.0234 23 33.0234C26.7969 33.0234 29.875 29.9453 29.875 26.1484C29.875 22.3516 26.7969 19.2734 23 19.2734ZM26.0938 29.2422C25.688 29.6491 25.2057 29.9718 24.6748 30.1917C24.1439 30.4116 23.5747 30.5243 23 30.5234C21.832 30.5234 20.7344 30.0664 19.9062 29.2422C19.4993 28.8364 19.1766 28.3542 18.9567 27.8232C18.7368 27.2923 18.6241 26.7231 18.625 26.1484C18.625 24.9805 19.082 23.8828 19.9062 23.0547C20.7344 22.2266 21.832 21.7734 23 21.7734C24.168 21.7734 25.2656 22.2266 26.0938 23.0547C26.9219 23.8828 27.375 24.9805 27.375 26.1484C27.375 27.3164 26.9219 28.4141 26.0938 29.2422Z" fill="#5BA900"/>
        <path class="marker--outer" d="M36.3828 20.293C35.6474 18.5972 34.5871 17.0618 33.2617 15.7734C31.932 14.4734 30.3644 13.4416 28.6445 12.7344C26.8555 11.9922 24.957 11.6172 23 11.6172C21.043 11.6172 19.1445 11.9922 17.3555 12.7305C15.625 13.4453 14.0742 14.4688 12.7383 15.7695C11.4138 17.0586 10.3536 18.5938 9.61719 20.2891C8.85547 22.0469 8.46875 23.9141 8.46875 25.8359C8.46875 28.5937 9.12891 31.3398 10.4258 33.9883C11.4688 36.1172 12.9258 38.1914 14.7617 40.1641C17.8984 43.5312 21.1875 45.5898 22.1211 46.1406C22.3861 46.2971 22.6883 46.3794 22.9961 46.3789C23.3008 46.3789 23.6016 46.3008 23.8711 46.1406C24.8047 45.5898 28.0938 43.5312 31.2305 40.1641C33.0664 38.1953 34.5234 36.1172 35.5664 33.9883C36.8711 31.3438 37.5312 28.6016 37.5312 25.8398C37.5312 23.918 37.1445 22.0508 36.3828 20.293ZM23 43.3828C20.4258 41.7461 11.2812 35.2656 11.2812 25.8398C11.2812 22.7969 12.4961 19.9375 14.7031 17.7813C16.918 15.6211 19.8633 14.4297 23 14.4297C26.1367 14.4297 29.082 15.6211 31.2969 17.7852C33.5039 19.9375 34.7188 22.7969 34.7188 25.8398C34.7188 35.2656 25.5742 41.7461 23 43.3828Z" fill="#5BA900"/>
    </g>
    <defs>
        <filter id="filter0_d_276_880" x="-5" y="-2" width="56" height="56" filterUnits="userSpaceOnUse" color-interpolation-filters="sRGB">
            <feFlood flood-opacity="0" result="BackgroundImageFix"/>
            <feColorMatrix in="SourceAlpha" type="matrix" values="0 0 0 0 0 0 0 0 0 0 0 0 0 0 0 0 0 0 127 0" result="hardAlpha"/>
            <feOffset dy="-3"/>
            <feGaussianBlur stdDeviation="4"/>
            <feColorMatrix type="matrix" values="0 0 0 0 0 0 0 0 0 0 0 0 0 0 0 0 0 0 0.15 0"/>
            <feBlend mode="normal" in2="BackgroundImageFix" result="effect1_dropShadow_276_880"/>
            <feBlend mode="normal" in="SourceGraphic" in2="effect1_dropShadow_276_880" result="shape"/>
        </filter>
    </defs>
</svg>
