<svg width="22" height="29" viewBox="0 0 22 29" fill="none" xmlns="http://www.w3.org/2000/svg">
<path d="M9.68374 7.45441C9.35797 7.49281 9.04871 7.61884 8.78889 7.81908C8.52908 8.01933 8.32843 8.28628 8.20832 8.59153C7.94678 9.1743 7.80464 9.81677 7.42087 10.3398C6.62488 11.4315 4.56101 11.1756 4.24546 12.6738C3.78208 14.8741 6.64478 15.3375 7.49478 16.8697C8.11735 18.0069 7.81317 19.7552 8.99009 20.5483C9.17004 20.6663 9.36776 20.7546 9.57571 20.8099C9.61212 20.8199 9.64916 20.8275 9.68658 20.8326L9.68374 7.45441Z" fill="white"/>
<path d="M9.68648 20.8383L9.57561 20.8156C9.36675 20.7603 9.16809 20.672 8.98715 20.554C7.81023 19.7609 8.11441 17.9955 7.49468 16.8754C7.27451 16.5115 6.9847 16.1947 6.64184 15.943L6.61057 15.9174C6.47411 16.0539 6.27228 16.2671 5.94535 16.594C5.69133 16.8534 5.45305 17.1277 5.23181 17.4156C5.99252 18.1819 6.62592 19.0648 7.10806 20.0309C7.67662 21.3074 7.83013 22.6975 8.2736 24.0109C8.42215 24.5039 8.64451 24.9717 8.93313 25.3981C9.11919 25.6762 9.38184 25.8945 9.68932 26.0264V20.8241L9.68648 20.8383Z" fill="url(#paint0_linear_276_366)"/>
<path d="M8.28773 4.6514C8.41281 4.78785 8.57201 4.95274 8.71415 5.10056C8.85629 5.24839 9.0496 5.44738 9.25713 5.64638C9.38505 5.76862 9.5414 5.93066 9.67502 6.04437V0.0318562C9.5357 0.00371378 9.39327 -0.00584495 9.25144 0.0034287C8.89309 0.023764 8.53966 0.096556 8.20245 0.219481C7.90132 0.324808 7.62124 0.482654 7.37519 0.6857C7.09776 0.910749 6.90526 1.22357 6.82937 1.57265C6.75276 2.05981 6.83657 2.55867 7.06817 2.99405C7.20923 3.29324 7.37767 3.57874 7.57135 3.84689C7.57135 3.84689 7.71349 4.0203 7.79308 4.10843C7.95512 4.27331 8.12285 4.46093 8.28773 4.6514Z" fill="url(#paint1_radial_276_366)"/>
<path d="M17.8823 9.30232C17.8121 8.39177 17.5821 7.5007 17.2029 6.66989C16.8692 5.95401 16.4132 5.30178 15.8554 4.74248C15.8014 4.68847 15.7446 4.63161 15.6877 4.58044C15.3748 4.28799 15.0361 4.02444 14.6757 3.79298C14.3208 3.56515 13.947 3.36827 13.5584 3.20453C12.9186 2.93463 12.2404 2.76676 11.5486 2.70704C10.9127 2.6343 10.269 2.73243 9.68372 2.99132V6.03311C10.0249 6.34581 10.4342 6.72106 10.6417 6.90585C10.7867 7.03377 10.926 7.15601 11.071 7.28109L11.4946 7.63644L11.9352 8.00885C12.1172 8.16236 12.771 8.69112 12.8477 8.7565L12.9757 8.85885L14.6273 10.1978L14.6643 10.2262C14.886 10.4053 16.026 11.3235 16.586 11.804C17.1461 12.2844 17.5668 12.6568 17.6066 12.6995C17.7172 12.2004 17.7998 11.6954 17.8539 11.1871C17.9196 10.5609 17.9291 9.93017 17.8823 9.30232Z" fill="url(#paint2_radial_276_366)"/>
<path d="M21.4642 18.1234C21.2653 17.376 20.9507 16.6642 20.5318 16.0141C19.9391 15.1051 19.2458 14.2659 18.4651 13.5124C18.1808 13.2281 17.8965 12.9723 17.6122 12.7022C17.5838 12.8301 17.5127 13.1343 17.3706 13.5977C17.2967 13.8393 17.163 14.2373 17.1119 14.388C17.0351 14.6069 16.8873 14.9992 16.7878 15.2408C16.6513 15.5962 16.4353 16.0937 16.242 16.5087C15.9634 17.1057 15.807 17.39 15.4972 17.9585C15.3579 18.2115 15.2385 18.4532 15.0651 18.7545C15.0054 18.8569 14.9428 18.9649 14.8689 19.0843C14.8376 19.1326 14.4794 19.7125 14.4425 19.7779C14.3714 19.8888 14.2918 20.0167 14.2435 20.0878C13.8142 20.7445 13.7773 20.7757 13.709 20.8724C13.5499 21.0885 13.7659 20.7928 13.4646 21.2164L12.751 22.2227C12.6458 22.3677 12.2905 22.8339 11.8982 23.3201C11.5059 23.8062 11.1022 24.3378 10.9231 24.551L9.66943 26.0292V29C10.1982 28.9573 10.7497 28.8834 11.3154 28.7811C12.0396 28.6456 12.7553 28.4681 13.4589 28.2495C14.0753 28.0572 14.6808 27.8313 15.2726 27.5729C15.8042 27.3405 16.3224 27.0785 16.8248 26.7883C17.4699 26.4158 18.0806 25.9867 18.6498 25.5062C19.2905 24.9665 19.8556 24.3431 20.3299 23.6527C20.8251 22.9308 21.1889 22.1273 21.4045 21.2789C21.5269 20.7939 21.5993 20.2976 21.6206 19.7978C21.6495 19.2351 21.5968 18.6711 21.4642 18.1234Z" fill="url(#paint3_radial_276_366)"/>
<path d="M8.93037 25.4123C8.64175 24.9858 8.41939 24.5181 8.27085 24.025C7.82737 22.7003 7.68523 21.3102 7.1053 20.0451C6.62373 19.0793 5.99133 18.1965 5.23189 17.4297C5.03205 17.6889 4.84879 17.9605 4.68323 18.2428C4.53291 18.5004 4.40727 18.7717 4.30798 19.053C4.25631 19.2123 4.21453 19.3746 4.1829 19.5391C4.15109 19.708 4.13208 19.8791 4.12604 20.0508C4.11828 20.2724 4.13161 20.4941 4.16584 20.7132C4.2047 20.9551 4.2656 21.193 4.34778 21.4239C4.45455 21.7205 4.58974 22.0061 4.75146 22.2767L4.82253 22.3933C5.15717 22.9311 5.56472 23.42 6.03356 23.8459C6.29778 24.0902 6.57589 24.3189 6.8665 24.5311C7.06266 24.6703 7.26165 24.8153 7.46633 24.9319C7.75061 25.1025 8.02068 25.2617 8.30496 25.4095C8.69158 25.6085 9.29994 25.8842 9.6894 26.0406C9.38088 25.9091 9.11719 25.6908 8.93037 25.4123Z" fill="url(#paint4_radial_276_366)"/>
<path d="M17.6067 12.6994C17.5669 12.6624 17.1092 12.2502 16.5861 11.8039C16.0631 11.3576 14.8804 10.4052 14.6644 10.2261L14.6274 10.1977L12.9758 8.86159C12.9132 8.81326 12.8706 8.7763 12.8478 8.7564C12.7711 8.69386 12.1172 8.1651 11.9353 8.01159L11.4947 7.64203L11.0739 7.29236C10.9204 7.16728 10.7897 7.04504 10.6418 6.91427C10.4343 6.73233 10.0249 6.34571 9.68381 6.04438C9.55304 5.92214 9.39953 5.7601 9.26876 5.64923C9.06124 5.45023 8.90204 5.29104 8.72579 5.10341C8.54954 4.91579 8.42445 4.7907 8.29937 4.65425C8.12312 4.46378 7.95539 4.27616 7.80472 4.09991L7.63416 3.90091C7.73365 4.06295 7.94118 4.36144 8.04636 4.50927C8.33064 4.93 8.27663 4.84188 8.56091 5.26829C8.75422 5.55257 9.08114 6.08133 9.26024 6.38267C9.28327 6.42031 9.30415 6.45922 9.32278 6.49922C9.43305 6.70519 9.52807 6.91898 9.60706 7.13885C9.64497 7.23934 9.66889 7.34456 9.67813 7.45156C9.67813 7.45156 9.67813 20.8269 9.67813 20.8354V26.0378L10.9318 24.5595C11.1109 24.3463 11.5203 23.8261 11.9069 23.3286C12.2935 22.8311 12.6403 22.3762 12.7597 22.2313L13.4733 21.2135C13.7746 20.79 13.5585 21.0856 13.7177 20.8696C13.786 20.7729 13.8229 20.7416 14.2522 20.0849L14.4512 19.7751C14.4881 19.7097 14.8463 19.1298 14.8776 19.0786C14.9515 18.962 15.0141 18.854 15.0738 18.7517C15.2472 18.4503 15.358 18.2087 15.5059 17.9557C15.8157 17.3871 15.9664 17.1029 16.245 16.5116C16.4383 16.0908 16.6544 15.5962 16.7908 15.2437C16.8903 14.9963 17.0381 14.6012 17.112 14.3908C17.1661 14.2373 17.2997 13.8422 17.3736 13.6005C17.5157 13.1343 17.5868 12.8301 17.6152 12.7022L17.6067 12.6994Z" fill="url(#paint5_radial_276_366)"/>
<path d="M5.22901 17.4156C5.45025 17.1278 5.68852 16.8534 5.94255 16.594C6.26947 16.2671 6.47131 16.0567 6.60776 15.9175C5.47064 15.022 3.89289 14.3511 4.2454 12.6795C4.56095 11.1814 6.62482 11.4372 7.4208 10.3456C7.80458 9.8225 7.94672 9.18003 8.20826 8.59725C8.32837 8.29201 8.52901 8.02505 8.78883 7.82481C9.04864 7.62457 9.3579 7.49854 9.68367 7.46013C9.67473 7.35216 9.65081 7.24596 9.6126 7.14458C9.53414 6.92541 9.43911 6.71254 9.32832 6.5078C9.31031 6.46658 9.28941 6.42668 9.26578 6.3884C9.08668 6.08991 8.75976 5.56683 8.56645 5.27403C8.28217 4.84761 8.34471 4.93573 8.0519 4.51784C7.94672 4.36717 7.7392 4.06868 7.6397 3.90664C7.6211 3.88711 7.60399 3.8662 7.58853 3.8441C7.39431 3.5763 7.22584 3.29076 7.08535 2.99126L7.01144 2.81216L6.09037 3.49443C5.36262 4.02888 4.62918 4.55764 3.92132 5.11767C3.4551 5.48439 2.99741 5.86533 2.55962 6.25479C2.12677 6.64339 1.72119 7.06132 1.34574 7.50562C0.643573 8.35846 0.0892276 9.31364 0.00962924 10.4053C-0.00320975 10.5832 -0.00320975 10.7618 0.00962924 10.9397C0.0201818 11.1308 0.0448866 11.3208 0.0835415 11.5083C0.22104 12.1701 0.506797 12.7922 0.919325 13.3277C1.38128 13.9177 1.90549 14.4562 2.48286 14.9338L2.76714 15.1869C3.4352 15.7554 4.11463 16.324 4.7571 16.9494C4.93904 17.12 5.11245 17.2991 5.28586 17.481L5.23185 17.4213L5.22901 17.4156Z" fill="url(#paint6_radial_276_366)"/>
<defs>
<linearGradient id="paint0_linear_276_366" x1="9.29701" y1="26.143" x2="6.61626" y2="15.9146" gradientUnits="userSpaceOnUse">
<stop stop-color="#350706"/>
<stop offset="0.36" stop-color="#3F0808"/>
<stop offset="0.98" stop-color="#5B0C0E"/>
<stop offset="1" stop-color="#5C0C0E"/>
</linearGradient>
<radialGradient id="paint1_radial_276_366" cx="0" cy="0" r="1" gradientUnits="userSpaceOnUse" gradientTransform="translate(9.621 5.53267) scale(5.73392 5.73392)">
<stop stop-color="#003789"/>
<stop offset="1" stop-color="#5FC7FF" stop-opacity="0.98"/>
</radialGradient>
<radialGradient id="paint2_radial_276_366" cx="0" cy="0" r="1" gradientUnits="userSpaceOnUse" gradientTransform="translate(13.4675 4.75669) scale(6.84546 6.84545)">
<stop stop-color="#EC0A1C"/>
<stop offset="1" stop-color="#BB0E15"/>
</radialGradient>
<radialGradient id="paint3_radial_276_366" cx="0" cy="0" r="1" gradientUnits="userSpaceOnUse" gradientTransform="translate(19.7841 14.5074) scale(11.7578 11.7578)">
<stop stop-color="#5BC0FF" stop-opacity="0.98"/>
<stop offset="1" stop-color="#003789"/>
</radialGradient>
<radialGradient id="paint4_radial_276_366" cx="0" cy="0" r="1" gradientUnits="userSpaceOnUse" gradientTransform="translate(4.82537 19.2179) scale(7.68124 7.68123)">
<stop stop-color="#42B4F3" stop-opacity="0.98"/>
<stop offset="1" stop-color="#003A80"/>
</radialGradient>
<radialGradient id="paint5_radial_276_366" cx="0" cy="0" r="1" gradientUnits="userSpaceOnUse" gradientTransform="translate(14.6815 10.03) scale(13.5715 13.5715)">
<stop stop-color="#5FC7FF"/>
<stop offset="1" stop-color="#003785" stop-opacity="0.98"/>
</radialGradient>
<radialGradient id="paint6_radial_276_366" cx="0" cy="0" r="1" gradientUnits="userSpaceOnUse" gradientTransform="translate(2.94624 7.41181) scale(15.6866 15.6865)">
<stop stop-color="#EC0A1C"/>
<stop offset="1" stop-color="#9E0D18"/>
</radialGradient>
</defs>
</svg>
