<svg width="28" height="28" viewBox="0 0 28 28" fill="none" xmlns="http://www.w3.org/2000/svg">
  <path d="M24.8719 23.3652L17.7707 16.2641C18.8727 14.8395 19.4688 13.0977 19.4688 11.2656C19.4688 9.07266 18.6129 7.01641 17.0652 5.46602C15.5176 3.91562 13.4559 3.0625 11.2656 3.0625C9.07539 3.0625 7.01367 3.91836 5.46602 5.46602C3.91562 7.01367 3.0625 9.07266 3.0625 11.2656C3.0625 13.4559 3.91836 15.5176 5.46602 17.0652C7.01367 18.6156 9.07266 19.4688 11.2656 19.4688C13.0977 19.4688 14.8367 18.8727 16.2613 17.7734L23.3625 24.8719C23.3833 24.8927 23.408 24.9092 23.4353 24.9205C23.4625 24.9318 23.4916 24.9376 23.5211 24.9376C23.5506 24.9376 23.5797 24.9318 23.6069 24.9205C23.6341 24.9092 23.6589 24.8927 23.6797 24.8719L24.8719 23.6824C24.8927 23.6616 24.9092 23.6369 24.9205 23.6097C24.9318 23.5825 24.9376 23.5533 24.9376 23.5238C24.9376 23.4944 24.9318 23.4652 24.9205 23.438C24.9092 23.4108 24.8927 23.3861 24.8719 23.3652ZM15.5969 15.5969C14.4375 16.7535 12.9008 17.3906 11.2656 17.3906C9.63047 17.3906 8.09375 16.7535 6.93438 15.5969C5.77773 14.4375 5.14062 12.9008 5.14062 11.2656C5.14062 9.63047 5.77773 8.09102 6.93438 6.93438C8.09375 5.77773 9.63047 5.14062 11.2656 5.14062C12.9008 5.14062 14.4402 5.775 15.5969 6.93438C16.7535 8.09375 17.3906 9.63047 17.3906 11.2656C17.3906 12.9008 16.7535 14.4402 15.5969 15.5969Z" fill="#8C8C8C"/>
</svg>
